# AST/ASF file generated using VICON BodyLanguage
# -----------------------------------------------
:version 1.10
:name VICON
:units
  mass 1.0
  length 0.45
  angle deg
:documentation
   .ast/.asf automatically generated from VICON data using
   VICON BodyBuilder and BodyLanguage model FoxedUp or BRILLIANT.MOD
:root
   order TX TY TZ RX RY RZ
   axis XYZ
   position 0 0 0  
   orientation 0 0 0 
:bonedata
  begin
     id 1 
     name lhipjoint
     direction 0.635376 -0.686425 0.353719 
     length 2.47244 
     axis 0 0 0  XYZ
  end
  begin
     id 2 
     name lfemur
     direction 0.34202 -0.939693 0  
     length 7.25268  
     axis 0 0 20  XYZ
    dof rx ry rz
    limits (-160.0 20.0)
           (-70.0 70.0)
           (-60.0 70.0)
  end
  begin
     id 3 
     name ltibia
     direction 0.34202 -0.939693 0   
     length 7.6767   
     axis 0 0 20   XYZ
    dof rx
    limits (-10.0 170.0)
  end
  begin
     id 4 
     name lfoot
     direction 0.0803374 -0.220725 0.972022   
     length 2.22945   
     axis -90 7.62852e-016 20   XYZ
    dof rx rz
    limits (-45.0 90.0)
           (-70.0 20.0)
  end
  begin
     id 5 
     name ltoes
     direction 1.53579e-011 -4.21994e-011 1   
     length 1.11848   
     axis -90 7.62852e-016 20   XYZ
    dof rx
    limits (-90.0 20.0)
  end
  begin
     id 6 
     name rhipjoint
     direction -0.664428 -0.664335 0.342336   
     length 2.55466  
     axis 0 0 0  XYZ 
  end
  begin
     id 7 
     name rfemur
     direction -0.34202 -0.939693 0   
     length 6.83172   
     axis 0 0 -20   XYZ
    dof rx ry rz
    limits (-160.0 20.0)
           (-70.0 70.0)
           (-70.0 60.0)
  end
  begin
     id 8 
     name rtibia
     direction -0.34202 -0.939693 0   
     length 7.62692   
     axis 0 0 -20   XYZ
    dof rx
    limits (-10.0 170.0)
 end
 begin
     id 9 
     name rfoot
     direction -0.0949276 -0.260811 0.960711   
     length 2.19684  
     axis -90 -7.62852e-016 -20   XYZ
    dof rx rz
    limits (-45.0 90.0)
           (-20.0 70.0)
  end
  begin
     id 10 
     name rtoes
     direction -1.53543e-011 -4.2183e-011 1   
     length 1.09848   
     axis -90 -7.62852e-016 -20   XYZ
    dof rx
    limits (-90.0 20.0)
  end
  begin
     id 11 
     name lowerback
     direction 0.0118782 0.999815 -0.0151555   
     length 2.15772   
     axis 0 0 0   XYZ
    dof rx ry rz
    limits (-20.0 45.0)
           (-30.0 30.0)
           (-30.0 30.0)
  end
  begin
     id 12 
     name upperback
     direction 0.00130825 0.999065 0.0432113   
     length 2.14863   
     axis 0 0 0   XYZ
    dof rx ry rz
    limits (-20.0 45.0)
           (-30.0 30.0)
           (-30.0 30.0)
  end
  begin
     id 13 
     name thorax
     direction -0.00347005 0.998773 0.0494011   
     length 2.14936   
     axis 0 0 0   XYZ
    dof rx ry rz
    limits (-20.0 45.0)
           (-30.0 30.0)
           (-30.0 30.0)
  end
  begin
     id 14 
     name lowerneck
     direction -0.0262159 0.99424 0.103921   
     length 1.69373   
     axis 0 0 0   XYZ
    dof rx ry rz
    limits (-20.0 45.0)
           (-30.0 30.0)
           (-30.0 30.0)
  end
  begin
     id 15 
     name upperneck
     direction 0.0353511 0.977394 -0.20845   
     length 1.70857   
     axis 0 0 0   XYZ
    dof rx ry rz
    limits (-20.0 45.0)
           (-30.0 30.0)
           (-30.0 30.0)
  end
  begin
     id 16
     name head
     direction 0.0139214 0.996594 -0.0812836  
     length 1.72777  
     axis 0 0 0   XYZ
    dof rx ry rz
    limits (-20.0 45.0)
           (-30.0 30.0)
           (-30.0 30.0)
  end
  begin
     id 17 
     name lclavicle
     direction 0.841247 0.537205 -0.0609508  
     length 3.55371  
     axis 0 0 0   XYZ
    dof ry rz
    limits (-20.0 10.0)
           (0.0 20.0)
  end
  begin
     id 18 
     name lhumerus
     direction 1 -4.48964e-011 1.60116e-018   
     length 4.91377   
     axis -180 -30 -90   XYZ
    dof rx ry rz
    limits (-60.0 90.0)
           (-90.0 90.0)
           (-90.0 90.0)
  end
  begin
     id 19
     name lradius
     direction 1 -4.48989e-011 -8.93847e-027   
     length 3.00291   
     axis -180 -30 -90   XYZ
    dof rx
    limits (-10.0 170.0)
  end
  begin
     id 20
     name lwrist
     direction 1 -4.48932e-011 -7.31504e-027   
     length 1.50145   
     axis 5.74121e-015 90 90   XYZ
    dof ry
    limits (-180.0 0.0)
 end
  begin
     id 21 
     name lhand
     direction 1 -4.48971e-011 -1.46301e-026   
     length 0.450922   
     axis 9.33524e-015 90 90   XYZ
    dof rx rz
    limits (-90.0 90.0)
           (-45.0 45.0)
  end
  begin
     id 22 
     name lfingers
     direction 1 -4.49039e-011 -2.92602e-026   
     length 0.363545   
     axis 1.86705e-014 90 90   XYZ
    dof rx
    limits (0.0 90.0)
  end
  begin
     id 23
     name lthumb
     direction 0.707107 -6.34941e-011 0.707107   
     length 0.52198   
     axis -90 45 2.85299e-015   XYZ
    dof rx rz
    limits (-45.0 45.0)
           (-45.0 45.0)
  end
  begin
     id 24 
     name rclavicle
     direction -0.825079 0.56158 -0.0622297   
     length 3.39909  
     axis 0 0 0   XYZ 
    dof ry rz
    limits (-10.0 20.0)
           (-20.0 0.0)
  end
  begin
     id 25 
     name rhumerus
     direction -1 -4.48965e-011 1.61691e-027  
     length 4.86725   
     axis -180 30 90   XYZ
    dof rx ry rz
    limits (-90.0 60.0)
           (-90.0 90.0)
           (-90.0 90.0)
  end
  begin
     id 26 
     name rradius
     direction -1 -4.48964e-011 -2.25776e-027   
     length 3.17144   
     axis -180 30 90   XYZ
    dof rx
    limits (-10.0 170.0)
  end
  begin
     id 27 
     name rwrist
     direction -1 -4.48961e-011 -7.31504e-027   
     length 1.58572   
     axis 5.74121e-015 -90 -90   XYZ
    dof ry
    limits (-180.0 0.0)
  end
  begin
     id 28
     name rhand
     direction -1 -4.49013e-011 -1.46301e-026   
     length 0.419368   
     axis 9.33524e-015 -90 -90   XYZ
    dof rx rz
    limits (-90.0 90.0)
           (-45.0 45.0)
  end
  begin
     id 29
     name rfingers
     direction -1 -4.489e-011 -2.92602e-026   
     length 0.338105   
     axis 1.86705e-014 -90 -90   XYZ
    dof rx
    limits (0.0 90.0)
  end
  begin
     id 30
     name rthumb
     direction -0.707107 -6.35022e-011 0.707107   
     length 0.485453   
     axis -90 -45 -2.85299e-015   XYZ
    dof rx rz
    limits (-45.0 45.0)
           (-45.0 45.0)
  end
:hierarchy
  begin
    root lhipjoint rhipjoint lowerback
    lhipjoint lfemur
    lfemur ltibia
    ltibia lfoot
    lfoot ltoes
    rhipjoint rfemur
    rfemur rtibia
    rtibia rfoot
    rfoot rtoes
    lowerback upperback
    upperback thorax
    thorax lowerneck lclavicle rclavicle
    lowerneck upperneck
    upperneck head
    lclavicle lhumerus
    lhumerus lradius
    lradius lwrist
    lwrist lhand lthumb
    lhand lfingers
    rclavicle rhumerus
    rhumerus rradius
    rradius rwrist
    rwrist rhand rthumb
    rhand rfingers
  end

#!OML:ASF H:\Swim 2\Project 1\Capture day 1\Session 1\male.ASF
:FULLY-SPECIFIED
:DEGREES
392
root 0.644111 15.0029 9.14341 108.797 16.6865 11.0396
lowerback -10.6214 2.52023 24.4537
upperback -6.06738 1.13207 1.49899
thorax -0.490296 -0.0316242 -11.9086
lowerneck -16.6484 3.98642 6.23589
upperneck 25.6928 2.98786 2.49937
head 11.1822 2.20711 0.280439
rclavicle 5.56597e-015 4.77114e-014
rhumerus 79.0319 -26.9038 -26.8758
rradius 25.8044
rwrist 19.1137
rhand -19.6261 0.0923256
rfingers 7.12502
rthumb 6.70073 -29.7817
lclavicle 5.56597e-015 4.77114e-014
lhumerus -132.989 -52.1109 136.454
lradius 40.524
lwrist 54.5942
lhand -6.53036 -8.4428
lfingers 7.12502
lthumb 19.3225 20.6172
rfemur -51.8811 -4.33399 17.4628
rtibia 59.6305
rfoot 30.6265 2.47755
rtoes 24.2037
lfemur -50.4502 -5.62043 -30.1841
ltibia 32.3915
lfoot -12.0364 7.41401
ltoes -22.0102
393
root 0.635 14.9964 9.1637 108.547 16.8588 10.5913
lowerback -10.3886 2.53405 24.5118
upperback -5.99675 1.20309 1.56183
thorax -0.512821 0.00747017 -11.8616
lowerneck -16.3737 4.00904 6.17496
upperneck 25.0616 3.00723 2.76114
head 10.8872 2.22788 0.372061
rclavicle 1.11319e-014 2.90971e-014
rhumerus 78.3738 -26.9689 -26.5957
rradius 25.6914
rwrist 19.1378
rhand -19.4393 -0.0406781
rfingers 7.12502
rthumb 6.8811 -29.9088
lclavicle 1.11319e-014 2.90971e-014
lhumerus -134.346 -53.447 136.392
lradius 39.0066
lwrist 56.6293
lhand -5.87476 -6.95225
lfingers 7.12502
lthumb 19.9527 22.0434
rfemur -52.2171 -4.15761 17.235
rtibia 60.1157
rfoot 31.8893 2.87836
rtoes 24.2511
lfemur -50.3831 -5.10579 -30.3894
ltibia 32.9334
lfoot -11.8 6.93339
ltoes -22.0517
394
root 0.624107 14.9892 9.18118 108.309 17.0472 10.1463
lowerback -10.1725 2.55323 24.5798
upperback -5.93669 1.27733 1.6278
thorax -0.537587 0.0467311 -11.8161
lowerneck -16.231 4.01457 6.29466
upperneck 24.6514 3.01975 2.71475
head 10.7111 2.2305 0.327905
rclavicle -3.18055e-015 -5.53149e-014
rhumerus 77.6706 -27.0361 -26.272
rradius 25.5804
rwrist 19.3877
rhand -19.2438 -0.0998714
rfingers 7.12502
rthumb 7.06984 -29.9618
lclavicle -3.18055e-015 -5.53149e-014
lhumerus -136.013 -54.8268 136.633
lradius 37.5801
lwrist 59.1609
lhand -5.35006 -5.31267
lfingers 7.12502
lthumb 20.457 23.6297
rfemur -52.6464 -3.91643 17.0012
rtibia 60.4387
rfoot 33.0706 3.31102
rtoes 24.2272
lfemur -50.3069 -4.63156 -30.5304
ltibia 33.6548
lfoot -11.5981 6.33303
ltoes -22.1991
395
root 0.611855 14.981 9.19635 108.087 17.2476 9.70767
lowerback -9.97768 2.57764 24.6544
upperback -5.89068 1.35407 1.69597
thorax -0.566136 0.0853721 -11.7713
lowerneck -16.273 3.99688 6.435
upperneck 24.5094 2.99234 2.58641
head 10.6716 2.2136 0.253845
rclavicle 1.66979e-014 -2.54413e-014
rhumerus 76.9067 -27.1022 -25.8723
rradius 25.4767
rwrist 19.871
rhand -19.0722 -0.0820752
rfingers 7.12502
rthumb 7.23541 -29.9384
lclavicle 1.66979e-014 -2.54413e-014
lhumerus -138.128 -56.2173 137.299
lradius 36.2854
lwrist 62.1908
lhand -5.04944 -3.56011
lfingers 7.12502
lthumb 20.7459 25.3509
rfemur -53.1681 -3.6293 16.7629
rtibia 60.5927
rfoot 34.0756 3.75546
rtoes 24.3025
lfemur -50.2159 -4.23276 -30.592
ltibia 34.5157
lfoot -11.4483 5.66806
ltoes -22.439
396
root 0.598748 14.9719 9.20975 107.887 17.4552 9.28034
lowerback -9.80696 2.60772 24.7309
upperback -5.86241 1.43411 1.76464
thorax -0.600764 0.123298 -11.7267
lowerneck -16.4733 3.95471 6.47986
upperneck 24.5835 2.91102 2.55543
head 10.7378 2.18026 0.229236
rclavicle 3.97569e-015 3.14484e-015
rhumerus 76.0884 -27.1624 -25.4202
rradius 25.3829
rwrist 20.5867
rhand -18.9469 0.0137219
rfingers 7.12502
rthumb 7.35638 -29.8384
lclavicle 3.97569e-015 3.14484e-015
lhumerus -140.806 -57.5884 138.487
lradius 35.1492
lwrist 65.6577
lhand -5.00815 -1.83895
lfingers 7.12502
lthumb 20.7856 27.0678
rfemur -53.7805 -3.31901 16.526
rtibia 60.5785
rfoot 34.8222 4.18764
rtoes 24.4182
lfemur -50.1008 -3.9171 -30.5804
ltibia 35.4738
lfoot -11.3523 4.99486
ltoes -22.7239
